<svg xmlns="http://www.w3.org/2000/svg" width="24" height="24" fill="none" xmlns:v="https://vecta.io/nano"><path d="M20.507 8.313l-7.853-2.689c-.422-.156-.901-.156-1.323 0L3.478 8.313c-.647.219-.647 1.188 0 1.407l1.379.469c-.31.406-.479.938-.507 1.47a1.01 1.01 0 0 0-.45.844c0 .344.141.625.366.813l-.704 3.596c-.056.313.141.594.422.594h1.604c.281 0 .478-.281.422-.594l-.704-3.596c.225-.188.394-.469.394-.813a.98.98 0 0 0-.45-.813c.028-.469.225-.907.591-1.157l5.489 1.876c.253.094.76.188 1.323 0l7.853-2.689c.647-.219.647-1.188 0-1.407zm-7.6 5.066c-.788.25-1.492.125-1.83 0l-4.081-1.407-.394 3.534c0 1.126 2.392 2.001 5.404 2.001 2.984 0 5.404-.875 5.404-2.001l-.422-3.533-4.081 1.407z" fill="#fff" fill-opacity=".8"/></svg>