<svg xmlns="http://www.w3.org/2000/svg" width="17" height="16" fill="none" xmlns:v="https://vecta.io/nano"><path fill-rule="evenodd" d="M8.071 13.284l-3.905 2.053a1 1 0 0 1-1.053-.076 1 1 0 0 1-.398-.978l.745-4.349-3.159-3.08a1 1 0 0 1-.272-.476 1 1 0 0 1 .02-.548 1 1 0 0 1 .806-.68l4.366-.635L7.174.558a1 1 0 0 1 .369-.407A1 1 0 0 1 8.071 0a1 1 0 0 1 .897.558l1.952 3.956 4.366.635a1 1 0 0 1 .807.68 1 1 0 0 1-.252 1.025l-3.16 3.08.746 4.349a1 1 0 0 1-.398.977 1 1 0 0 1-1.052.077l-3.906-2.053z" fill="#fff"/></svg>